name C:/MyDriveSym/Projects/mobilecap/Data\Session20210827_0002\mocap\ForceDataProcessed\walking3_forces.mot
datacolumns 19
datarows 22
range 1.01950000 1.03000000
endheader 
time	R_ground_force_vx	R_ground_force_vy	R_ground_force_vz	R_ground_force_px	R_ground_force_py	R_ground_force_pz	R_ground_torque_x	R_ground_torque_y	R_ground_torque_z	L_ground_force_vx	L_ground_force_vy	L_ground_force_vz	L_ground_force_px	L_ground_force_py	L_ground_force_pz	L_ground_torque_x	L_ground_torque_y	L_ground_torque_z	
          1.01950000	          0.00000000	          0.00000000	          0.00000000	          1.20233600	          0.00000000	         -0.17236200	          0.00000000	          0.00000000	          0.00000000	         40.06666500	        584.49376100	         23.08153800	          0.94864800	          0.00600000	         -0.28629600	          0.00000000	          5.83087300	          0.00000000	
          1.02000000	          0.00000000	          0.00000000	          0.00000000	          1.20365500	          0.00000000	         -0.17234900	          0.00000000	          0.00000000	          0.00000000	         40.43363700	        585.28464400	         23.13207800	          0.94874200	          0.00600000	         -0.28627100	          0.00000000	          5.84188300	          0.00000000	
          1.02050000	          0.00000000	          0.00000000	          0.00000000	          1.20497300	          0.00000000	         -0.17233500	          0.00000000	          0.00000000	          0.00000000	         40.80127800	        586.07574500	         23.18263200	          0.94883500	          0.00600000	         -0.28624500	          0.00000000	          5.85278900	          0.00000000	
          1.02100000	          0.00000000	          0.00000000	          0.00000000	          1.20629100	          0.00000000	         -0.17232200	          0.00000000	          0.00000000	          0.00000000	         41.16957600	        586.86699200	         23.23319300	          0.94892800	          0.00600000	         -0.28622000	          0.00000000	          5.86358900	          0.00000000	
          1.02150000	          0.00000000	          0.00000000	          0.00000000	          1.20760900	          0.00000000	         -0.17230800	          0.00000000	          0.00000000	          0.00000000	         41.53852200	        587.65831100	         23.28375300	          0.94902100	          0.00600000	         -0.28619500	          0.00000000	          5.87428300	          0.00000000	
          1.02200000	          0.00000000	          0.00000000	          0.00000000	          1.20892800	          0.00000000	         -0.17229400	          0.00000000	          0.00000000	          0.00000000	         41.90810500	        588.44962700	         23.33430500	          0.94911400	          0.00600000	         -0.28617000	          0.00000000	          5.88487000	          0.00000000	
          1.02250000	          0.00000000	          0.00000000	          0.00000000	          1.21024600	          0.00000000	         -0.17228100	          0.00000000	          0.00000000	          0.00000000	         42.27831500	        589.24086600	         23.38484200	          0.94920600	          0.00600000	         -0.28614500	          0.00000000	          5.89534900	          0.00000000	
          1.02300000	          0.00000000	          0.00000000	          0.00000000	          1.21156400	          0.00000000	         -0.17226700	          0.00000000	          0.00000000	          0.00000000	         42.64914100	        590.03195200	         23.43535700	          0.94929800	          0.00600000	         -0.28612000	          0.00000000	          5.90571900	          0.00000000	
          1.02350000	          0.00000000	          0.00000000	          0.00000000	          1.21288200	          0.00000000	         -0.17225400	          0.00000000	          0.00000000	          0.00000000	         43.02057300	        590.82280900	         23.48584200	          0.94939000	          0.00600000	         -0.28609600	          0.00000000	          5.91598000	          0.00000000	
          1.02400000	          0.00000000	          0.00000000	          0.00000000	          1.21420100	          0.00000000	         -0.17224000	          0.00000000	          0.00000000	          0.00000000	         43.39260000	        591.61336200	         23.53629100	          0.94948200	          0.00600000	         -0.28607100	          0.00000000	          5.92613100	          0.00000000	
          1.02450000	          0.00000000	          0.00000000	          0.00000000	          1.21551900	          0.00000000	         -0.17222700	          0.00000000	          0.00000000	          0.00000000	         43.76521100	        592.40353300	         23.58669500	          0.94957400	          0.00600000	         -0.28604700	          0.00000000	          5.93617100	          0.00000000	
          1.02500000	          0.00000000	          0.00000000	          0.00000000	          1.21683700	          0.00000000	         -0.17221300	          0.00000000	          0.00000000	          0.00000000	         44.13839400	        593.19324600	         23.63704800	          0.94966500	          0.00600000	         -0.28602200	          0.00000000	          5.94610000	          0.00000000	
          1.02550000	          0.00000000	          0.00000000	          0.00000000	          1.21815500	          0.00000000	         -0.17219900	          0.00000000	          0.00000000	          0.00000000	         44.51213800	        593.98242100	         23.68734100	          0.94975600	          0.00600000	         -0.28599800	          0.00000000	          5.95591700	          0.00000000	
          1.02600000	          0.00000000	          0.00000000	          0.00000000	          1.21947300	          0.00000000	         -0.17218600	          0.00000000	          0.00000000	          0.00000000	         44.88643100	        594.77098100	         23.73756800	          0.94984700	          0.00600000	         -0.28597400	          0.00000000	          5.96562100	          0.00000000	
          1.02650000	          0.00000000	          0.00000000	          0.00000000	          1.22079200	          0.00000000	         -0.17217200	          0.00000000	          0.00000000	          0.00000000	         45.26126200	        595.55884700	         23.78772000	          0.94993800	          0.00600000	         -0.28595000	          0.00000000	          5.97521200	          0.00000000	
          1.02700000	          0.00000000	          0.00000000	          0.00000000	          1.22211000	          0.00000000	         -0.17215900	          0.00000000	          0.00000000	          0.00000000	         45.63661900	        596.34593900	         23.83779100	          0.95002900	          0.00600000	         -0.28592600	          0.00000000	          5.98468900	          0.00000000	
          1.02750000	          0.00000000	          0.00000000	          0.00000000	          1.22342800	          0.00000000	         -0.17214500	          0.00000000	          0.00000000	          0.00000000	         46.01248900	        597.13217800	         23.88777200	          0.95011900	          0.00600000	         -0.28590200	          0.00000000	          5.99405200	          0.00000000	
          1.02800000	          0.00000000	          0.00000000	          0.00000000	          1.22474600	          0.00000000	         -0.17213200	          0.00000000	          0.00000000	          0.00000000	         46.38886000	        597.91748300	         23.93765600	          0.95020900	          0.00600000	         -0.28587800	          0.00000000	          6.00329900	          0.00000000	
          1.02850000	          0.00000000	          0.00000000	          0.00000000	          1.22606500	          0.00000000	         -0.17211800	          0.00000000	          0.00000000	          0.00000000	         46.76572100	        598.70177200	         23.98743600	          0.95029900	          0.00600000	         -0.28585500	          0.00000000	          6.01243000	          0.00000000	
          1.02900000	          0.00000000	          0.00000000	          0.00000000	          1.22738300	          0.00000000	         -0.17210500	          0.00000000	          0.00000000	          0.00000000	         47.14305700	        599.48496500	         24.03710200	          0.95038900	          0.00600000	         -0.28583100	          0.00000000	          6.02144500	          0.00000000	
          1.02950000	          0.00000000	          0.00000000	          0.00000000	          1.22870100	          0.00000000	         -0.17209100	          0.00000000	          0.00000000	          0.00000000	         47.52085700	        600.26698000	         24.08664900	          0.95047800	          0.00600000	         -0.28580800	          0.00000000	          6.03034200	          0.00000000	
          1.03000000	          0.00000000	          0.00000000	          0.00000000	          1.23001900	          0.00000000	         -0.17207700	          0.00000000	          0.00000000	          0.00000000	         47.89910800	        601.04773300	         24.13606800	          0.95056800	          0.00600000	         -0.28578500	          0.00000000	          6.03912200	          0.00000000	
